<svg width="64" height="77" viewBox="0 0 64 77" fill="none" xmlns="http://www.w3.org/2000/svg">
<path d="M32.0944 70.5447H31.9058C31.8924 70.5581 31.8789 70.5447 31.8789 70.5447C30.1954 70.612 28.8486 71.9992 28.8486 73.6961C28.8486 75.4334 30.2627 76.8475 32.0001 76.8475C33.7374 76.8475 35.1515 75.4334 35.1515 73.6961C35.1515 71.9991 33.8047 70.612 32.1213 70.5447C32.1213 70.5447 32.1078 70.5581 32.0944 70.5447Z" fill="white"/>
<path d="M17.2513 60.3488C15.5139 60.3488 14.1133 61.7629 14.1133 63.5002C14.1133 65.2241 15.5139 66.6382 17.2513 66.6382C18.9886 66.6382 20.4027 65.2241 20.4027 63.5002C20.4027 61.7629 19.0021 60.3622 17.2647 60.3488H17.2513Z" fill="white"/>
<path d="M46.7327 60.3488C44.9954 60.3622 43.5947 61.7629 43.5947 63.5002C43.5947 65.2241 45.0088 66.6382 46.7462 66.6382C48.4835 66.6382 49.8842 65.2241 49.8842 63.5002C49.8842 61.7629 48.4835 60.3488 46.7462 60.3488H46.7327Z" fill="white"/>
<path d="M0 29.0232C0 34.9491 4.80801 39.7441 10.7209 39.7441H21.6701V47.084L16.3099 52.4577C16.054 52.7136 15.9193 53.0503 15.9193 53.414V57.818C16.3503 57.7102 16.7947 57.6564 17.2526 57.6564C17.724 57.6564 18.1819 57.7102 18.6129 57.8314V53.9661L23.9731 48.5924C24.229 48.3365 24.3637 47.9864 24.3637 47.6362V39.7441H30.6566C30.6566 39.7441 30.6532 39.7508 30.6532 39.7575V68.0129C31.0842 67.9052 31.542 67.8513 32 67.8513C32.458 67.8513 32.9158 67.9052 33.3468 68.0129V39.7575C33.3468 39.7575 33.3434 39.7508 33.3434 39.7441H39.6363V47.6362C39.6363 47.9864 39.771 48.3365 40.0269 48.5924L45.3871 53.9661V57.8314C45.8181 57.7102 46.276 57.6564 46.7474 57.6564C47.2053 57.6564 47.6497 57.7102 48.0807 57.818V53.414C48.0807 53.0503 47.946 52.7136 47.6901 52.4577L42.3299 47.084V39.7441H53.2791C59.1916 39.7441 64 34.9495 64 29.0232C64 24.5923 61.2795 20.7674 57.4411 19.1376C57.7374 17.9389 57.899 16.6864 57.899 15.3935C57.899 6.8952 51.0169 0 42.5185 0C37.3737 0 32.8078 2.53196 30.0203 6.41071C27.9193 4.75414 25.2662 3.78445 22.3706 3.78445C15.5154 3.78445 9.93962 9.34666 9.93962 16.2016C9.93962 16.9289 9.99349 17.6292 10.1147 18.316C4.48517 18.6393 0 23.2992 0 29.0232ZM25.4006 16.8482C26.1414 16.8482 26.7474 17.4408 26.7474 18.195C26.7474 18.9358 26.1414 19.5418 25.4006 19.5418C20.7272 19.5418 16.9293 23.3263 16.9293 27.9996C16.9293 28.7404 16.3368 29.3464 15.5826 29.3464C14.8418 29.3464 14.2358 28.7404 14.2358 27.9996C14.2358 21.8448 19.2459 16.8482 25.4006 16.8482Z" fill="white"/>
</svg>
