<svg width="646" height="54" viewBox="0 0 646 54" fill="none" xmlns="http://www.w3.org/2000/svg">
<path d="M0.476 41V1.8H13.972C17.0707 1.8 19.6093 2.32266 21.588 3.368C23.604 4.41333 25.0973 5.832 26.068 7.624C27.0387 9.37867 27.524 11.3387 27.524 13.504C27.524 15.9307 26.8707 18.1333 25.564 20.112C24.2947 22.0907 22.2973 23.5093 19.572 24.368L27.916 41H21.028L13.412 25.208H6.412V41H0.476ZM6.412 20.728H13.636C16.324 20.728 18.284 20.0747 19.516 18.768C20.7853 17.4613 21.42 15.7627 21.42 13.672C21.42 11.5813 20.804 9.92 19.572 8.688C18.34 7.41867 16.3427 6.784 13.58 6.784H6.412V20.728ZM46.739 41.672C44.0137 41.672 41.587 41.0747 39.459 39.88C37.3683 38.648 35.7257 36.9493 34.531 34.784C33.3363 32.6187 32.739 30.0987 32.739 27.224C32.739 24.312 33.3177 21.7547 34.475 19.552C35.6697 17.3493 37.3123 15.632 39.403 14.4C41.531 13.168 43.995 12.552 46.795 12.552C49.5203 12.552 51.891 13.168 53.907 14.4C55.923 15.5947 57.491 17.2 58.611 19.216C59.731 21.232 60.291 23.4533 60.291 25.88C60.291 26.2533 60.2723 26.664 60.235 27.112C60.235 27.5227 60.2163 27.9893 60.179 28.512H38.563C38.7497 31.2 39.627 33.2533 41.195 34.672C42.8003 36.0533 44.6483 36.744 46.739 36.744C48.419 36.744 49.819 36.3707 50.939 35.624C52.0963 34.84 52.955 33.7947 53.515 32.488H59.451C58.7043 35.1013 57.211 37.2853 54.971 39.04C52.7683 40.7947 50.0243 41.672 46.739 41.672ZM46.739 17.424C44.7603 17.424 43.0057 18.0213 41.475 19.216C39.9443 20.3733 39.011 22.128 38.675 24.48H54.355C54.243 22.3147 53.4777 20.5973 52.059 19.328C50.6403 18.0587 48.867 17.424 46.739 17.424ZM80.2261 41.672C77.5381 41.672 75.1675 41.0373 73.1141 39.768C71.0608 38.4987 69.4555 36.7627 68.2981 34.56C67.1408 32.3573 66.5621 29.856 66.5621 27.056C66.5621 24.256 67.1408 21.7733 68.2981 19.608C69.4555 17.4053 71.0608 15.688 73.1141 14.456C75.2048 13.1867 77.5941 12.552 80.2821 12.552C82.4848 12.552 84.4075 12.9813 86.0501 13.84C87.7301 14.6987 89.0368 15.912 89.9701 17.48V0.679998H95.9061V41H90.5861L89.9701 36.688C89.0741 37.9947 87.8421 39.152 86.2741 40.16C84.7061 41.168 82.6901 41.672 80.2261 41.672ZM81.2901 36.52C83.8288 36.52 85.9008 35.6427 87.5061 33.888C89.1488 32.1333 89.9701 29.8747 89.9701 27.112C89.9701 24.312 89.1488 22.0533 87.5061 20.336C85.9008 18.5813 83.8288 17.704 81.2901 17.704C78.7515 17.704 76.6608 18.5813 75.0181 20.336C73.3755 22.0533 72.5541 24.312 72.5541 27.112C72.5541 28.9413 72.9275 30.5653 73.6741 31.984C74.4208 33.4027 75.4475 34.5227 76.7541 35.344C78.0981 36.128 79.6101 36.52 81.2901 36.52ZM117.502 41.672C114.777 41.672 112.35 41.0747 110.222 39.88C108.132 38.648 106.489 36.9493 105.294 34.784C104.1 32.6187 103.502 30.0987 103.502 27.224C103.502 24.312 104.081 21.7547 105.238 19.552C106.433 17.3493 108.076 15.632 110.166 14.4C112.294 13.168 114.758 12.552 117.558 12.552C120.284 12.552 122.654 13.168 124.67 14.4C126.686 15.5947 128.254 17.2 129.374 19.216C130.494 21.232 131.054 23.4533 131.054 25.88C131.054 26.2533 131.036 26.664 130.998 27.112C130.998 27.5227 130.98 27.9893 130.942 28.512H109.326C109.513 31.2 110.39 33.2533 111.958 34.672C113.564 36.0533 115.412 36.744 117.502 36.744C119.182 36.744 120.582 36.3707 121.702 35.624C122.86 34.84 123.718 33.7947 124.278 32.488H130.214C129.468 35.1013 127.974 37.2853 125.734 39.04C123.532 40.7947 120.788 41.672 117.502 41.672ZM117.502 17.424C115.524 17.424 113.769 18.0213 112.238 19.216C110.708 20.3733 109.774 22.128 109.438 24.48H125.118C125.006 22.3147 124.241 20.5973 122.822 19.328C121.404 18.0587 119.63 17.424 117.502 17.424ZM139.734 41V18.208H135.758V13.224H139.734V9.192C139.734 6.168 140.48 4.00266 141.974 2.696C143.504 1.352 145.651 0.679998 148.414 0.679998H151.326V5.72H149.31C148.003 5.72 147.07 6 146.51 6.56C145.95 7.08267 145.67 7.97867 145.67 9.248V13.224H163.254V41H157.318V18.208H145.67V41H139.734ZM160.342 8.576C159.222 8.576 158.288 8.24 157.542 7.568C156.832 6.85866 156.478 5.96266 156.478 4.88C156.478 3.83466 156.832 2.976 157.542 2.304C158.288 1.632 159.222 1.296 160.342 1.296C161.462 1.296 162.376 1.632 163.086 2.304C163.832 2.976 164.206 3.83466 164.206 4.88C164.206 5.96266 163.832 6.85866 163.086 7.568C162.376 8.24 161.462 8.576 160.342 8.576ZM172.266 41V13.224H177.53L177.978 18.096C178.837 16.3787 180.087 15.0347 181.73 14.064C183.41 13.056 185.333 12.552 187.498 12.552C190.858 12.552 193.49 13.5973 195.394 15.688C197.335 17.7787 198.306 20.896 198.306 25.04V41H192.426V25.656C192.426 20.28 190.223 17.592 185.818 17.592C183.615 17.592 181.786 18.376 180.33 19.944C178.911 21.512 178.202 23.752 178.202 26.664V41H172.266ZM209.777 7.96C208.657 7.96 207.724 7.624 206.977 6.952C206.268 6.24266 205.913 5.36533 205.913 4.32C205.913 3.27467 206.268 2.416 206.977 1.744C207.724 1.03466 208.657 0.679998 209.777 0.679998C210.897 0.679998 211.812 1.03466 212.521 1.744C213.268 2.416 213.641 3.27467 213.641 4.32C213.641 5.36533 213.268 6.24266 212.521 6.952C211.812 7.624 210.897 7.96 209.777 7.96ZM206.809 41V13.224H212.745V41H206.809ZM221.701 41V13.224H226.965L227.413 18.096C228.272 16.3787 229.523 15.0347 231.165 14.064C232.845 13.056 234.768 12.552 236.933 12.552C240.293 12.552 242.925 13.5973 244.829 15.688C246.771 17.7787 247.741 20.896 247.741 25.04V41H241.861V25.656C241.861 20.28 239.659 17.592 235.253 17.592C233.051 17.592 231.221 18.376 229.765 19.944C228.347 21.512 227.637 23.752 227.637 26.664V41H221.701ZM267.221 32.488C265.765 32.488 264.421 32.32 263.189 31.984L260.781 34.336C261.191 34.5973 261.695 34.8213 262.293 35.008C262.89 35.1947 263.73 35.3627 264.813 35.512C265.895 35.6613 267.37 35.8107 269.237 35.96C272.933 36.296 275.602 37.192 277.245 38.648C278.887 40.0667 279.709 41.9707 279.709 44.36C279.709 46.0027 279.261 47.552 278.365 49.008C277.506 50.5013 276.143 51.696 274.277 52.592C272.447 53.5253 270.095 53.992 267.221 53.992C263.338 53.992 260.183 53.2453 257.757 51.752C255.367 50.296 254.173 48.0747 254.173 45.088C254.173 43.9307 254.471 42.7733 255.069 41.616C255.703 40.496 256.693 39.432 258.037 38.424C257.253 38.088 256.562 37.7333 255.965 37.36C255.405 36.9493 254.901 36.5387 254.453 36.128V34.784L259.269 29.856C257.103 27.9893 256.021 25.544 256.021 22.52C256.021 20.6907 256.45 19.0293 257.309 17.536C258.205 16.0053 259.493 14.792 261.173 13.896C262.853 13 264.869 12.552 267.221 12.552C268.789 12.552 270.245 12.776 271.589 13.224H281.949V17.144L277.021 17.424C277.917 18.9547 278.365 20.6533 278.365 22.52C278.365 24.3867 277.917 26.0667 277.021 27.56C276.162 29.0533 274.893 30.248 273.213 31.144C271.57 32.04 269.573 32.488 267.221 32.488ZM267.221 27.84C268.938 27.84 270.319 27.392 271.365 26.496C272.447 25.5627 272.989 24.256 272.989 22.576C272.989 20.8587 272.447 19.552 271.365 18.656C270.319 17.76 268.938 17.312 267.221 17.312C265.466 17.312 264.047 17.76 262.965 18.656C261.919 19.552 261.397 20.8587 261.397 22.576C261.397 24.256 261.919 25.5627 262.965 26.496C264.047 27.392 265.466 27.84 267.221 27.84ZM259.773 44.528C259.773 46.1333 260.482 47.328 261.901 48.112C263.319 48.9333 265.093 49.344 267.221 49.344C269.274 49.344 270.935 48.896 272.205 48C273.474 47.1413 274.109 45.984 274.109 44.528C274.109 43.4453 273.679 42.512 272.821 41.728C271.962 40.9813 270.338 40.5147 267.949 40.328C266.157 40.216 264.57 40.048 263.189 39.824C261.882 40.5333 260.986 41.2987 260.501 42.12C260.015 42.9413 259.773 43.744 259.773 44.528ZM301.297 41L315.745 1.8H322.241L336.577 41H330.305L326.945 31.424H310.929L307.569 41H301.297ZM312.609 26.72H325.265L318.937 8.856L312.609 26.72ZM343.628 41V18.208H339.652V13.224H343.628V9.192C343.628 6.168 344.375 4.00266 345.868 2.696C347.399 1.352 349.546 0.679998 352.308 0.679998H355.22V5.72H353.204C351.898 5.72 350.964 6 350.404 6.56C349.844 7.08267 349.564 7.97867 349.564 9.248V13.224H355.948V18.208H349.564V41H343.628ZM362.708 41V13.224H368.028L368.532 18.488C369.502 16.6587 370.846 15.2213 372.564 14.176C374.318 13.0933 376.428 12.552 378.892 12.552V18.768H377.268C375.625 18.768 374.15 19.048 372.844 19.608C371.574 20.1307 370.548 21.0453 369.764 22.352C369.017 23.6213 368.644 25.3947 368.644 27.672V41H362.708ZM388.461 7.96C387.341 7.96 386.408 7.624 385.661 6.952C384.952 6.24266 384.597 5.36533 384.597 4.32C384.597 3.27467 384.952 2.416 385.661 1.744C386.408 1.03466 387.341 0.679998 388.461 0.679998C389.581 0.679998 390.496 1.03466 391.205 1.744C391.952 2.416 392.325 3.27467 392.325 4.32C392.325 5.36533 391.952 6.24266 391.205 6.952C390.496 7.624 389.581 7.96 388.461 7.96ZM385.493 41V13.224H391.429V41H385.493ZM413.545 41.672C410.82 41.672 408.374 41.056 406.209 39.824C404.081 38.592 402.401 36.8933 401.169 34.728C399.974 32.5253 399.377 29.9867 399.377 27.112C399.377 24.2373 399.974 21.7173 401.169 19.552C402.401 17.3493 404.081 15.632 406.209 14.4C408.374 13.168 410.82 12.552 413.545 12.552C416.98 12.552 419.854 13.448 422.169 15.24C424.521 17.032 426.033 19.4587 426.705 22.52H420.489C420.116 20.9893 419.294 19.7947 418.025 18.936C416.756 18.0773 415.262 17.648 413.545 17.648C412.089 17.648 410.745 18.0213 409.513 18.768C408.281 19.4773 407.292 20.5413 406.545 21.96C405.798 23.3413 405.425 25.0587 405.425 27.112C405.425 29.1653 405.798 30.9013 406.545 32.32C407.292 33.7013 408.281 34.7653 409.513 35.512C410.745 36.2587 412.089 36.632 413.545 36.632C415.262 36.632 416.756 36.2027 418.025 35.344C419.294 34.4853 420.116 33.272 420.489 31.704H426.705C426.07 34.6907 424.577 37.0987 422.225 38.928C419.873 40.7573 416.98 41.672 413.545 41.672ZM443.671 41.672C441.319 41.672 439.378 41.28 437.847 40.496C436.316 39.712 435.178 38.6853 434.431 37.416C433.684 36.1093 433.311 34.6907 433.311 33.16C433.311 30.472 434.356 28.344 436.447 26.776C438.538 25.208 441.524 24.424 445.407 24.424H452.687V23.92C452.687 21.7547 452.09 20.1307 450.895 19.048C449.738 17.9653 448.226 17.424 446.359 17.424C444.716 17.424 443.279 17.8347 442.047 18.656C440.852 19.44 440.124 20.616 439.863 22.184H433.927C434.114 20.168 434.786 18.4507 435.943 17.032C437.138 15.576 438.631 14.4747 440.423 13.728C442.252 12.944 444.25 12.552 446.415 12.552C450.298 12.552 453.303 13.5787 455.431 15.632C457.559 17.648 458.623 20.4107 458.623 23.92V41H453.471L452.967 36.24C452.183 37.7707 451.044 39.0587 449.551 40.104C448.058 41.1493 446.098 41.672 443.671 41.672ZM444.847 36.856C446.452 36.856 447.796 36.4827 448.879 35.736C449.999 34.952 450.858 33.9253 451.455 32.656C452.09 31.3867 452.482 29.9867 452.631 28.456H446.023C443.671 28.456 441.991 28.8667 440.983 29.688C440.012 30.5093 439.527 31.536 439.527 32.768C439.527 34.0373 439.994 35.0453 440.927 35.792C441.898 36.5013 443.204 36.856 444.847 36.856ZM464.984 14.96L468.12 1.8H474.56L469.128 14.96H464.984ZM489.646 41.672C486.136 41.672 483.243 40.8133 480.966 39.096C478.688 37.3787 477.382 35.1013 477.046 32.264H483.038C483.336 33.5333 484.046 34.6347 485.166 35.568C486.286 36.464 487.76 36.912 489.59 36.912C491.382 36.912 492.688 36.5387 493.51 35.792C494.331 35.0453 494.742 34.1867 494.742 33.216C494.742 31.7973 494.163 30.8453 493.006 30.36C491.886 29.8373 490.318 29.3707 488.302 28.96C486.734 28.624 485.166 28.176 483.598 27.616C482.067 27.056 480.779 26.272 479.734 25.264C478.726 24.2187 478.222 22.8187 478.222 21.064C478.222 18.6373 479.155 16.6213 481.022 15.016C482.888 13.3733 485.502 12.552 488.862 12.552C491.96 12.552 494.462 13.2987 496.366 14.792C498.307 16.2853 499.446 18.3947 499.782 21.12H494.07C493.883 19.9253 493.323 18.992 492.39 18.32C491.494 17.648 490.28 17.312 488.75 17.312C487.256 17.312 486.099 17.6293 485.278 18.264C484.456 18.8613 484.046 19.6453 484.046 20.616C484.046 21.5867 484.606 22.352 485.726 22.912C486.883 23.472 488.395 23.976 490.262 24.424C492.128 24.8347 493.846 25.32 495.414 25.88C497.019 26.4027 498.307 27.1867 499.278 28.232C500.248 29.2773 500.734 30.808 500.734 32.824C500.771 35.3627 499.782 37.472 497.766 39.152C495.787 40.832 493.08 41.672 489.646 41.672ZM532.971 41V6.616H521.379V1.8H550.443V6.616H538.907V41H532.971ZM564.855 41.672C562.13 41.672 559.703 41.0747 557.575 39.88C555.484 38.648 553.842 36.9493 552.647 34.784C551.452 32.6187 550.855 30.0987 550.855 27.224C550.855 24.312 551.434 21.7547 552.591 19.552C553.786 17.3493 555.428 15.632 557.519 14.4C559.647 13.168 562.111 12.552 564.911 12.552C567.636 12.552 570.007 13.168 572.023 14.4C574.039 15.5947 575.607 17.2 576.727 19.216C577.847 21.232 578.407 23.4533 578.407 25.88C578.407 26.2533 578.388 26.664 578.351 27.112C578.351 27.5227 578.332 27.9893 578.295 28.512H556.679C556.866 31.2 557.743 33.2533 559.311 34.672C560.916 36.0533 562.764 36.744 564.855 36.744C566.535 36.744 567.935 36.3707 569.055 35.624C570.212 34.84 571.071 33.7947 571.631 32.488H577.567C576.82 35.1013 575.327 37.2853 573.087 39.04C570.884 40.7947 568.14 41.672 564.855 41.672ZM564.855 17.424C562.876 17.424 561.122 18.0213 559.591 19.216C558.06 20.3733 557.127 22.128 556.791 24.48H572.471C572.359 22.3147 571.594 20.5973 570.175 19.328C568.756 18.0587 566.983 17.424 564.855 17.424ZM598.846 41.672C596.121 41.672 593.675 41.056 591.51 39.824C589.382 38.592 587.702 36.8933 586.47 34.728C585.275 32.5253 584.678 29.9867 584.678 27.112C584.678 24.2373 585.275 21.7173 586.47 19.552C587.702 17.3493 589.382 15.632 591.51 14.4C593.675 13.168 596.121 12.552 598.846 12.552C602.281 12.552 605.155 13.448 607.47 15.24C609.822 17.032 611.334 19.4587 612.006 22.52H605.79C605.417 20.9893 604.595 19.7947 603.326 18.936C602.057 18.0773 600.563 17.648 598.846 17.648C597.39 17.648 596.046 18.0213 594.814 18.768C593.582 19.4773 592.593 20.5413 591.846 21.96C591.099 23.3413 590.726 25.0587 590.726 27.112C590.726 29.1653 591.099 30.9013 591.846 32.32C592.593 33.7013 593.582 34.7653 594.814 35.512C596.046 36.2587 597.39 36.632 598.846 36.632C600.563 36.632 602.057 36.2027 603.326 35.344C604.595 34.4853 605.417 33.272 605.79 31.704H612.006C611.371 34.6907 609.878 37.0987 607.526 38.928C605.174 40.7573 602.281 41.672 598.846 41.672ZM619.564 41V0.679998H625.5V17.704C626.433 16.0987 627.721 14.848 629.364 13.952C631.044 13.0187 632.892 12.552 634.908 12.552C638.231 12.552 640.844 13.5973 642.748 15.688C644.652 17.7787 645.604 20.896 645.604 25.04V41H639.724V25.656C639.724 20.28 637.577 17.592 633.284 17.592C631.044 17.592 629.177 18.376 627.684 19.944C626.228 21.512 625.5 23.752 625.5 26.664V41H619.564Z" fill="url(#paint0_linear_1057_302)"/>
<defs>
<linearGradient id="paint0_linear_1057_302" x1="-3.5" y1="21.5" x2="649.5" y2="21.5" gradientUnits="userSpaceOnUse">
<stop stop-color="#05199A"/>
<stop offset="0.517094" stop-color="#60B9FF"/>
<stop offset="0.525641" stop-color="#5CB2FB"/>
<stop offset="1" stop-color="#001F47"/>
</linearGradient>
</defs>
</svg>
