<svg width="73" height="73" viewBox="0 0 73 73" fill="none" xmlns="http://www.w3.org/2000/svg">
<path fill-rule="evenodd" clip-rule="evenodd" d="M44.2509 19.7562L36.5034 15.183L28.7494 19.7595V27.1382C28.7494 27.7373 28.5637 28.2906 28.2466 28.7423C30.6967 27.3642 33.5088 26.5818 36.4999 26.5818C39.4909 26.5818 42.3065 27.3642 44.7531 28.7423C44.436 28.2906 44.2503 27.7374 44.2503 27.1382L44.2509 19.7562ZM64.7455 0.500419C60.7676 0.500419 57.4911 3.56122 57.046 7.50599H46.9512C46.4548 7.50599 46.0512 7.91847 46.0512 8.42591V27.1345C46.0512 27.6419 46.4547 28.0544 46.9512 28.0544C47.4476 28.0544 47.8512 27.6419 47.8512 27.1345V9.34525H57.0466C57.4918 13.2899 60.7715 16.3508 64.7461 16.3508C69.0282 16.3508 72.5 12.8022 72.5 8.42541C72.5 4.04863 69.0276 0.500419 64.7455 0.500419ZM15.954 7.50599H26.0488C26.5452 7.50599 26.9488 7.91847 26.9488 8.42591V27.1345C26.9488 27.6419 26.5453 28.0544 26.0488 28.0544C25.5524 28.0544 25.1488 27.6419 25.1488 27.1345V9.34525H15.9534C15.5082 13.2899 12.2286 16.3508 8.25393 16.3508C3.97177 16.3508 0.5 12.8022 0.5 8.42541C0.5 4.04863 3.97185 0.5 8.25393 0.5C12.2318 0.5 15.5089 3.56122 15.954 7.50599ZM12.053 5.09334L7.44099 9.80735L4.45601 6.75635C4.1037 6.39625 3.5336 6.39625 3.18448 6.75635C2.83217 7.11646 2.83217 7.69916 3.18448 8.056L6.80687 11.7585C7.15918 12.1186 7.72927 12.1186 8.07839 11.7585L13.3277 6.39306C13.68 6.03296 13.68 5.45026 13.3277 5.09342C12.9754 4.73332 12.4053 4.73332 12.0562 5.09342L12.053 5.09334ZM61.4816 6.39298C61.1293 6.03288 61.1293 5.45018 61.4816 5.09334C61.8339 4.73323 62.404 4.73323 62.7531 5.09334L64.7421 7.12627L66.731 5.09334C67.0833 4.73323 67.6534 4.73323 68.0025 5.09334C68.3548 5.45344 68.3548 6.03614 68.0025 6.39298L66.0136 8.42591L68.0025 10.4588C68.3548 10.8189 68.3548 11.4016 68.0025 11.7585C67.6502 12.1186 67.0801 12.1186 66.731 11.7585L64.7421 9.72555L62.7531 11.7585C62.4008 12.1186 61.8307 12.1186 61.4816 11.7585C61.1293 11.3984 61.1293 10.8157 61.4816 10.4588L63.4705 8.42591L61.4816 6.39298ZM36.4963 28.4177C44.9742 28.4177 51.8443 35.4429 51.8443 44.1051C51.8443 52.7705 44.9711 59.7925 36.4963 59.7925C28.0184 59.7925 21.1483 52.7673 21.1483 44.1051C21.1483 35.4397 28.0215 28.4177 36.4963 28.4177ZM36.4963 37.8817C34.8148 37.8817 33.2903 38.579 32.1886 39.7052C31.0868 40.8313 30.4046 42.3895 30.4046 44.1082C30.4046 45.8269 31.0868 47.3818 32.1886 48.5112C33.2904 49.6374 34.8116 50.3346 36.4963 50.3346C38.1778 50.3346 39.7023 49.6373 40.8041 48.5112C41.9058 47.3851 42.588 45.8269 42.588 44.1082C42.588 42.3895 41.9058 40.8346 40.8041 39.7052C39.7023 38.579 38.1778 37.8817 36.4963 37.8817ZM39.5293 41.0048C38.7543 40.2126 37.6813 39.7216 36.4963 39.7216C35.3113 39.7216 34.2383 40.2126 33.4633 41.0048C32.6882 41.797 32.2078 42.8937 32.2078 44.1049C32.2078 45.3161 32.6883 46.4128 33.4633 47.205C34.2384 47.9972 35.3113 48.4882 36.4963 48.4882C37.6813 48.4882 38.7543 47.9972 39.5293 47.205C40.3044 46.4128 40.7848 45.3161 40.7848 44.1049C40.7848 42.8937 40.3044 41.797 39.5293 41.0048ZM39.9681 33.9076V32.9386C39.9681 31.6946 38.9753 30.6798 37.7582 30.6798H35.2376C34.0237 30.6798 33.0277 31.6946 33.0277 32.9386V33.9076C31.7658 34.3561 30.6032 35.0435 29.5943 35.9372L28.7712 35.4495C27.7175 34.8275 26.3659 35.1974 25.7574 36.2744C25.7798 36.2875 24.5819 38.2976 24.4539 38.5856C23.9158 39.6266 24.2585 40.923 25.2353 41.5482C25.4852 41.7283 25.8535 41.9149 26.1257 42.0753C26.0008 42.7398 25.9367 43.4273 25.9367 44.1017C25.9367 44.7761 26.004 45.4668 26.1257 46.1281L25.3026 46.6126C24.2521 47.2313 23.8901 48.6062 24.4923 49.6833C24.9022 50.4329 25.3602 51.1727 25.7574 51.929C26.3531 52.9831 27.663 53.3628 28.7104 52.7899L29.5975 52.2694C30.6065 53.1598 31.769 53.8506 33.0309 54.2991V55.268C33.0309 56.512 34.0238 57.5268 35.2409 57.5268H37.7614C38.9785 57.5268 39.9714 56.512 39.9714 55.268V54.2991C41.2333 53.8506 42.3926 53.1631 43.4048 52.2727C43.6802 52.4364 44.0229 52.6688 44.3048 52.7997C45.3233 53.3464 46.5916 52.9994 47.2033 52.001C47.6325 51.3823 48.1161 50.3871 48.5068 49.6996C49.1186 48.6193 48.7534 47.2379 47.6965 46.6159L46.8766 46.1314C47.0015 45.4668 47.0656 44.7761 47.0656 44.1017C47.0656 43.4273 46.9983 42.7366 46.8766 42.072L47.6997 41.5875C48.7535 40.9655 49.1154 39.5841 48.5068 38.507L47.2449 36.2711C46.6364 35.1941 45.2848 34.8242 44.2311 35.4462L43.4079 35.934C42.399 35.0403 41.2365 34.3528 39.9746 33.9043L39.9681 33.9076ZM38.9048 35.4854C38.4852 35.4069 38.1681 35.0304 38.1681 34.5819V32.9386C38.1681 32.7095 37.9824 32.5196 37.7582 32.5196H35.2376C35.0134 32.5196 34.8276 32.7095 34.8276 32.9386L34.8244 34.5819C34.8244 34.9846 34.5618 35.3545 34.1647 35.4658C32.7298 35.8685 31.4102 36.6542 30.3502 37.7213C30.0683 38.0029 29.6295 38.0716 29.274 37.8621L27.8808 37.0404C27.6855 36.9259 27.426 36.9979 27.3139 37.1976L26.052 39.4302C25.9399 39.6266 26.0104 39.8885 26.1993 40.0031L27.5957 40.828C27.9352 41.031 28.1178 41.4435 28.0153 41.8527C27.8263 42.5991 27.7399 43.3356 27.7399 44.1082C27.7399 44.8644 27.8231 45.5912 28.0057 46.3244C28.1274 46.7238 27.9672 47.169 27.5989 47.3884L26.2602 48.1773C25.9303 48.4065 25.9527 48.5472 26.0968 48.8648L27.3139 51.0188C27.4196 51.2087 27.663 51.284 27.8552 51.189L29.2741 50.351C29.6135 50.148 30.0587 50.1938 30.3534 50.4917C31.4007 51.5458 32.6947 52.3184 34.107 52.7309C34.5202 52.8128 34.8341 53.1859 34.8341 53.6344V55.2777C34.8341 55.5069 35.0198 55.6967 35.244 55.6967H37.7646C37.9888 55.6967 38.1746 55.5069 38.1746 55.2777L38.1778 53.6344C38.1778 53.2318 38.4404 52.8618 38.8376 52.7505C40.266 52.3479 41.5792 51.5687 42.6361 50.5113C42.9147 50.2134 43.3695 50.1349 43.7346 50.3509L45.1278 51.1726C45.3199 51.2872 45.5762 51.2152 45.6883 51.022L46.9502 48.7861C47.0591 48.593 46.9918 48.3213 46.7997 48.21L45.4449 47.4112C45.0798 47.2213 44.878 46.7892 44.9869 46.3669C45.1759 45.6205 45.2656 44.8807 45.2656 44.1114C45.2656 43.3388 45.1791 42.6022 44.9869 41.8559C44.8876 41.4663 45.051 41.0407 45.4097 40.8312L46.7965 40.0095C46.9919 39.8949 47.0623 39.6298 46.9502 39.4301L45.6883 37.2007C45.5762 37.001 45.3136 36.929 45.1214 37.0436L43.7763 37.8391C43.4303 38.0715 42.9595 38.0355 42.6521 37.7278C41.6112 36.6802 40.3172 35.9011 38.908 35.4919L38.9048 35.4854ZM21.648 52.8783L14.1887 60.5026C12.4656 62.2638 12.4656 65.1446 14.1887 66.9057C15.9118 68.667 18.7303 68.667 20.4533 66.9057L27.9127 59.2814C25.3184 57.7429 23.1533 55.5331 21.648 52.8783ZM23.3455 22.9407C21.0939 24.2665 15.22 27.7333 12.8916 29.1082L22.1156 34.5523C23.2847 32.719 24.7772 31.1248 26.5131 29.8513C26.3593 29.8775 26.2024 29.8939 26.0423 29.8939C24.553 29.8939 23.3423 28.6564 23.3423 27.1342V22.9407L23.3455 22.9407ZM46.4761 29.8513C46.6298 29.8775 46.7868 29.8939 46.9469 29.8939C48.4362 29.8939 49.6469 28.6564 49.6469 27.1342V22.9407L60.1008 29.1115L50.8768 34.5555C49.7077 32.7223 48.2153 31.1281 46.4793 29.8546L46.4761 29.8513ZM11.3993 30.3522L8.9364 34.4377L19.6592 40.7656C19.9667 39.1321 20.4951 37.5804 21.2126 36.1433L11.3957 30.3522H11.3993ZM64.0567 34.4377L61.5938 30.3522L51.7769 36.1433C52.4944 37.5804 53.0228 39.1321 53.3303 40.7656L64.0531 34.4377H64.0567ZM11.9921 38.366L19.4002 42.7363C19.365 43.188 19.349 43.643 19.349 44.1046C19.349 46.6122 19.8646 48.9954 20.7934 51.1528L12.9722 59.147L11.9921 58.5708V38.366ZM24.14 65.7366L29.6008 60.1551C31.452 60.9866 33.473 61.494 35.5964 61.6053V72.4932L24.1398 65.7332L24.14 65.7366ZM49.6434 59.8899L55.9946 56.1416C56.4238 55.8895 56.5711 55.3297 56.3245 54.891C56.0779 54.4524 55.5302 54.3018 55.101 54.5539L48.7499 58.3022C48.3207 58.5543 48.1734 59.1141 48.42 59.5527C48.6666 59.9914 49.2143 60.142 49.6434 59.8899ZM37.3956 72.5L61.0001 58.5708V38.3664L53.592 42.7366C53.6272 43.1884 53.6432 43.6434 53.6432 44.105C53.6432 53.4777 46.4466 61.1307 37.3958 61.6092L37.3956 72.5Z" fill="white"/>
</svg>
