<svg width="154" height="154" viewBox="0 0 154 154" fill="none" xmlns="http://www.w3.org/2000/svg">
<path d="M84.3401 72.8865C79.4857 72.8865 79.4857 80.5158 84.3401 80.5158C89.1953 80.5158 94.0505 83.9835 92.6624 88.838C91.2757 99.2406 73.9368 99.2406 66.3082 91.6128C57.9861 83.2905 61.4533 70.1131 69.7753 63.1779C81.566 52.7752 100.985 54.8558 111.389 65.2585C125.26 79.1298 119.711 99.9364 105.84 111.032C89.1946 125.596 61.4541 124.903 45.5029 108.952C26.7769 90.2254 34.4063 61.7903 53.1322 46.5343C75.3256 27.1155 111.389 27.1155 132.196 47.9209C155.776 72.1949 146.76 108.258 123.18 128.372C95.4378 151.259 51.0518 152.646 24.6973 126.292C-3.7374 97.1616 7.35893 54.1636 35.7939 29.1967C51.0516 16.7135 71.1641 8.39001 92.6631 7.69728C97.5182 7.69728 97.5182 0.0678711 91.9694 0.0678711C69.0823 0.761755 47.5835 9.77795 30.937 23.6477C-0.965412 50.6958 -12.7564 99.2434 19.1466 131.839C48.2765 160.968 97.5175 160.273 128.032 133.919C155.081 111.032 164.791 70.1138 137.743 43.0644C114.163 18.7905 73.2424 18.7905 48.2757 40.2899C26.0824 59.0159 18.4533 92.3065 39.9536 114.498C58.6796 133.224 90.5827 134.611 111.389 117.273C128.035 102.709 133.583 77.0473 116.938 60.4033C103.761 46.5322 80.18 44.4517 64.9213 56.9361C53.1308 67.3388 48.9698 85.3709 60.7602 97.1616C72.5508 108.953 96.8259 107.564 100.291 90.2261C102.371 80.5165 93.3554 72.8879 84.3394 72.8879L84.3401 72.8865Z" fill="white" fill-opacity="0.3"/>
</svg>
